<?xml version="1.0" encoding="UTF-8"?>
<svg version="1.1" xmlns="http://www.w3.org/2000/svg" width="1024" height="1024">
<path d="M0 0 C337.92 0 675.84 0 1024 0 C1024 337.92 1024 675.84 1024 1024 C686.08 1024 348.16 1024 0 1024 C0 686.08 0 348.16 0 0 Z " fill="#F8F7F2" transform="translate(0,0)"/>
<path d="M0 0 C3.63 0 7.26 0 11 0 C11.33 72.27 11.66 144.54 12 219 C14.97 215.7 17.94 212.4 21 209 C31.25736822 201.89874508 41.9419018 197.84258048 54.4921875 197.90234375 C55.69101562 197.90556641 56.88984375 197.90878906 58.125 197.91210938 C59.3625 197.92048828 60.6 197.92886719 61.875 197.9375 C63.13570312 197.94201172 64.39640625 197.94652344 65.6953125 197.95117188 C68.79692386 197.9629204 71.89843725 197.97934833 75 198 C75.8957018 240.45167209 75.8957018 240.45167209 59.83984375 257.6328125 C44.67175042 270.2763676 30.06753178 269 10 269 C10 334.67 10 400.34 10 468 C6.7 468 3.4 468 0 468 C0 313.56 0 159.12 0 0 Z " fill="#5F9189" transform="translate(729,278)"/>
<path d="M0 0 C6.48916046 5.63753312 9.70787213 12.87154956 10.40380859 21.39355469 C10.44444568 24.73977827 10.48464936 28.08517072 10.48388672 31.43164062 C10.48824309 33.56722845 10.5245821 35.70071633 10.5625 37.8359375 C10.65530668 49.00205025 9.08136374 58.79946282 1.11328125 67.1796875 C-7.7591283 74.52715166 -18.95908955 74.58513833 -29.88671875 73.8359375 C-36.63385469 72.25621315 -42.39155518 68.0430048 -46.88671875 62.8359375 C-51.96398014 54.1488313 -52.12974359 45.82522306 -52.18188477 35.984375 C-52.19335958 34.4793962 -52.21373978 32.97445665 -52.2434082 31.46972656 C-52.46559229 20.18426461 -51.79583525 10.05634152 -43.7265625 1.37109375 C-31.40109241 -8.91321568 -12.88758366 -9.1259228 0 0 Z " fill="#164148" transform="translate(594.88671875,491.1640625)"/>
<path d="M0 0 C5.87314614 3.54544051 9.36405237 8.73690129 12 15 C13.63560804 23.17804022 13 31.66000266 13 40 C-2.84 40 -18.68 40 -35 40 C-34.02401555 52.19689743 -34.02401555 52.19689743 -27.625 61.5 C-21.58680898 63.9985618 -14.10756429 64.47181463 -7.86328125 62.234375 C-5.56700888 60.77679153 -4.13351241 59.2373554 -2.8046875 56.875 C-1 55 -1 55 2.35546875 54.609375 C3.62003906 54.65578125 4.88460937 54.7021875 6.1875 54.75 C8.09595703 54.80414062 8.09595703 54.80414062 10.04296875 54.859375 C11.01878906 54.90578125 11.99460937 54.9521875 13 55 C11.73713786 62.24288582 8.5813917 66.87382316 3.171875 71.640625 C-3.21951548 75.6409917 -9.07351193 76.48198288 -16.4375 76.375 C-17.23220703 76.38660156 -18.02691406 76.39820313 -18.84570312 76.41015625 C-28.32914258 76.36385793 -35.17610186 73.72233768 -42.05078125 67.18359375 C-49.54712241 58.78588892 -49.20912408 48.96908433 -49.24023438 38.22436523 C-49.24992477 36.20319202 -49.28099596 34.18304415 -49.3125 32.16210938 C-49.35543718 21.35804128 -48.17983821 12.592929 -40.5390625 4.44140625 C-29.1134263 -6.31371139 -13.75856427 -6.48531444 0 0 Z " fill="#1A434A" transform="translate(512,640)"/>
<path d="M0 0 C6.56997949 5.35972011 9.44322001 11.30127002 11.75 19.375 C11.75 25.645 11.75 31.915 11.75 38.375 C-4.09 38.375 -19.93 38.375 -36.25 38.375 C-35.85006764 49.19112497 -35.85006764 49.19112497 -31.25 58.375 C-25.52522582 62.74443895 -19.13210629 62.0948525 -12.25 61.375 C-9.19483578 60.40471169 -7.78906621 59.45241781 -5.25 57.375 C-4.59 56.055 -3.93 54.735 -3.25 53.375 C1.37 53.375 5.99 53.375 10.75 53.375 C9.49493681 60.90537915 6.6823269 65.26629411 0.81005859 69.96459961 C-5.35076023 74.18254822 -12.46754714 74.90548633 -19.75 74.8125 C-20.58370117 74.80492676 -21.41740234 74.79735352 -22.27636719 74.78955078 C-28.32276853 74.62706412 -33.20558927 73.92926752 -38.25 70.375 C-39.21099609 69.72144531 -39.21099609 69.72144531 -40.19140625 69.0546875 C-45.64443961 64.88806911 -48.11728766 59.77313702 -50.25 53.375 C-50.38289374 50.67643214 -50.46223189 48.00455137 -50.48828125 45.3046875 C-50.496353 44.50902374 -50.50442474 43.71335999 -50.51274109 42.89358521 C-50.52656905 41.20739918 -50.53729697 39.52118531 -50.54516602 37.83496094 C-50.55665054 36.12231155 -50.57704618 34.40969696 -50.60668945 32.69726562 C-50.80003973 21.52399613 -50.52003331 13.5428259 -44 4.125 C-32.25404063 -7.62095937 -13.84967168 -9.44295796 0 0 Z " fill="#1A434A" transform="translate(676.25,641.625)"/>
<path d="M0 0 C8.01053938 4.69264271 10.54734641 9.79207631 14.3671875 18.38671875 C14.3671875 25.64671875 14.3671875 32.90671875 14.3671875 40.38671875 C-1.4728125 40.38671875 -17.3128125 40.38671875 -33.6328125 40.38671875 C-32.83816822 53.22872585 -32.83816822 53.22872585 -26.1953125 62.88671875 C-19.73305129 65.60767084 -12.71289087 65.35937508 -6.0703125 63.26171875 C-3.38567306 61.49249078 -3.38567306 61.49249078 -2.1328125 58.19921875 C0.3671875 55.38671875 0.3671875 55.38671875 3.7265625 55 C7.29100436 55.01073627 10.81247169 55.13009488 14.3671875 55.38671875 C14.09805347 61.84593556 11.86400374 65.76364201 7.3671875 70.38671875 C0.38376452 75.88460244 -6.61007106 77.78011217 -15.3828125 77.76171875 C-16.17905029 77.76010742 -16.97528809 77.75849609 -17.7956543 77.75683594 C-25.41527831 77.59843348 -30.86746654 75.61169591 -37.3828125 71.76171875 C-46.28234446 62.36776835 -47.98965258 52.11273965 -47.94848633 39.59057617 C-47.94533675 37.5896256 -47.96963299 35.58869359 -47.99414062 33.58789062 C-47.99924097 23.38210924 -47.10181846 14.36921232 -40.515625 6.2109375 C-29.932379 -4.04295437 -13.34451408 -5.77991871 0 0 Z " fill="#174249" transform="translate(510.6328125,336.61328125)"/>
<path d="M0 0 C6.89835964 4.07977779 11.43424929 9.49563687 14.25 17 C15.3125 22.5625 15.3125 22.5625 15.3125 40.5625 C-0.8575 40.5625 -17.0275 40.5625 -33.6875 40.5625 C-32.54488135 52.88071476 -32.54488135 52.88071476 -26.125 61.875 C-20.70076454 65.63023993 -15.12569843 65.11500332 -8.6875 64.5625 C-5.63506807 63.61216586 -4.25181953 62.62510484 -1.6875 60.5625 C-1.28144531 59.69625 -0.87539063 58.83 -0.45703125 57.9375 C0.12691406 57.15375 0.71085937 56.37 1.3125 55.5625 C4.66796875 55.07421875 4.66796875 55.07421875 8.5 55.25 C9.77230469 55.29511719 11.04460937 55.34023438 12.35546875 55.38671875 C13.81919922 55.47373047 13.81919922 55.47373047 15.3125 55.5625 C13.87831583 63.30709454 10.57450881 68.78207553 4.3125 73.5625 C-4.28296586 78.60734313 -15.00236515 78.98992346 -24.6875 77.5625 C-32.61785249 75.19032033 -39.35758454 70.72676123 -43.6875 63.5625 C-46.15446403 57.84399777 -47.15455547 53.23671498 -47.15625 47.0390625 C-47.16386353 46.25284515 -47.17147705 45.46662781 -47.17932129 44.65658569 C-47.19005518 43.00448762 -47.19300294 41.35232206 -47.18847656 39.70019531 C-47.18750486 37.19999725 -47.22918533 34.70288093 -47.2734375 32.203125 C-47.3530834 21.74146332 -46.411071 14.25283419 -39.51171875 5.94140625 C-38.80660156 5.34199219 -38.10148437 4.74257813 -37.375 4.125 C-36.67761719 3.50753906 -35.98023438 2.89007813 -35.26171875 2.25390625 C-25.15118393 -4.38928279 -10.94370672 -4.96813924 0 0 Z " fill="#184149" transform="translate(348.6875,336.4375)"/>
<path d="M0 0 C4.36552692 2.31116131 7.12111605 5.01385299 10 9 C10.556875 8.071875 11.11375 7.14375 11.6875 6.1875 C14.07390568 2.89813 15.26441241 1.49423504 19 0 C23.68277033 -0.70241555 27.03194098 -0.47489688 31.3125 1.625 C35.0586516 4.93555257 37.41844616 8.25533849 39 13 C39.08942453 15.13151727 39.11758899 17.26578151 39.11352539 19.39916992 C39.11367142 20.04334366 39.11381744 20.6875174 39.1139679 21.35121155 C39.11327195 23.47766502 39.10549448 25.6040306 39.09765625 27.73046875 C39.09579094 29.20591687 39.09436757 30.68136561 39.09336853 32.15681458 C39.08955226 36.03825595 39.07972956 39.91965985 39.06866455 43.80108643 C39.05843131 47.76256808 39.05386681 51.72405581 39.04882812 55.68554688 C39.0381065 63.45704833 39.02104075 71.22851891 39 79 C35.04 79 31.08 79 27 79 C26.98541748 77.20860596 26.97083496 75.41721191 26.95581055 73.5715332 C26.90410634 67.64418634 26.83880601 61.71707253 26.76428509 55.78997517 C26.71961054 52.19732735 26.68034838 48.60479216 26.65356445 45.01196289 C26.62750177 41.54284303 26.58707944 38.07415725 26.53681374 34.60530663 C26.51207779 32.64178155 26.50210773 30.67808842 26.49235535 28.71443176 C26.47256119 27.5135643 26.45276703 26.31269684 26.43237305 25.07543945 C26.41571846 23.49325371 26.41571846 23.49325371 26.39872742 21.87910461 C25.90159241 18.289425 24.58185932 15.58185932 22 13 C19.12693772 12.49904977 19.12693772 12.49904977 16 13 C12.34560706 16.60862675 11.49611871 19.09366569 11.45410156 24.16723633 C11.43438293 25.38812454 11.41466431 26.60901276 11.39434814 27.86689758 C11.39311951 29.17539169 11.39189087 30.4838858 11.390625 31.83203125 C11.37563526 33.1925401 11.35890643 34.5530308 11.34051514 35.91349792 C11.29691734 39.48254251 11.27685977 43.05134166 11.26177979 46.62060547 C11.24218101 50.26739977 11.20021427 53.91393008 11.16015625 57.56054688 C11.08493655 64.70695523 11.03666446 71.85327466 11 79 C7.04 79 3.08 79 -1 79 C-1.02187378 76.16088013 -1.02187378 76.16088013 -1.04418945 73.2644043 C-1.09581627 67.01373727 -1.16109534 60.7633298 -1.23571491 54.51289654 C-1.28046024 50.72289337 -1.3197068 46.93299872 -1.34643555 43.14282227 C-1.37242758 39.48568947 -1.41279987 35.82897338 -1.46318626 32.17209816 C-1.47988295 30.7762959 -1.49137979 29.38042151 -1.49761391 27.98453331 C-1.50722363 26.03083288 -1.53696471 24.07726273 -1.56762695 22.1237793 C-1.57873001 21.0112529 -1.58983307 19.8987265 -1.60127258 18.75248718 C-1.78243136 15.99786059 -1.78243136 15.99786059 -3.34342957 14.14851379 C-6.00922083 12.30029896 -7.85594613 12.48668508 -11 13 C-14.64247445 16.62307437 -15.50383026 19.0875045 -15.54589844 24.16723633 C-15.57547638 25.99856865 -15.57547638 25.99856865 -15.60565186 27.86689758 C-15.60688049 29.17539169 -15.60810913 30.4838858 -15.609375 31.83203125 C-15.62436474 33.1925401 -15.64109357 34.5530308 -15.65948486 35.91349792 C-15.70308266 39.48254251 -15.72314023 43.05134166 -15.73822021 46.62060547 C-15.75781899 50.26739977 -15.79978573 53.91393008 -15.83984375 57.56054688 C-15.91506345 64.70695523 -15.96333554 71.85327466 -16 79 C-19.96 79 -23.92 79 -28 79 C-28 53.59 -28 28.18 -28 2 C-24.04 2 -20.08 2 -16 2 C-15.67 3.65 -15.34 5.3 -15 7 C-14.13375 5.824375 -14.13375 5.824375 -13.25 4.625 C-9.26635694 -0.02258357 -6.10743933 -0.63180407 0 0 Z " fill="#164148" transform="translate(650,485)"/>
<path d="M0 0 C4.29 0 8.58 0 13 0 C13.64009117 4.18682587 14.27925196 8.37377824 14.91650391 12.56103516 C15.13120794 13.9702858 15.34634297 15.37947089 15.56201172 16.78857422 C17.81458505 31.51036861 19.90817527 46.25462846 22 61 C22.11053207 60.2947821 22.22106415 59.58956421 22.33494568 58.86297607 C23.37767552 52.21223878 24.42214132 45.5617767 25.46855068 38.91161728 C26.00643896 35.49282254 26.54365892 32.07392559 27.0793457 28.65478516 C27.69543236 24.72266701 28.31443639 20.79101084 28.93359375 16.859375 C29.12529648 15.63321472 29.31699921 14.40705444 29.51451111 13.14373779 C29.78467796 11.43241669 29.78467796 11.43241669 30.06030273 9.68652344 C30.21796616 8.68280701 30.37562958 7.67909058 30.53807068 6.6449585 C30.92825294 4.41081608 31.44993933 2.20024267 32 0 C36.29 0 40.58 0 45 0 C47.68658391 12.72176497 49.99757856 25.49753301 52.1875 38.3125 C52.31964905 39.08429596 52.4517981 39.85609192 52.58795166 40.65127563 C52.97034382 42.88834997 53.35089823 45.12572656 53.73046875 47.36328125 C53.843871 48.02936401 53.95727325 48.69544678 54.07411194 49.38171387 C54.7819542 53.58032197 55.41317423 57.78323281 56 62 C56.14695312 60.79214844 56.29390625 59.58429687 56.4453125 58.33984375 C58.88037445 38.83122962 61.96044032 19.42162124 65 0 C68.96 0 72.92 0 77 0 C76.30768062 7.94601274 75.12755012 15.74127559 73.78515625 23.6015625 C73.5693541 24.87800629 73.35355194 26.15445007 73.13121033 27.46957397 C72.67697077 30.15424447 72.22035106 32.83849577 71.76196289 35.52246094 C71.17814008 38.9419363 70.60017194 42.36237049 70.02396488 45.78313637 C69.46828631 49.07730514 68.9077666 52.37064434 68.34765625 55.6640625 C68.14237808 56.88195465 67.93709991 58.0998468 67.7256012 59.35464478 C66.70439515 65.31259009 65.57304073 71.16242109 64 77 C59.05 77 54.1 77 49 77 C47.4101629 70.16741215 46.16682531 63.3274778 45.0546875 56.40234375 C44.87994904 55.32747208 44.70521057 54.2526004 44.525177 53.14515686 C43.97267044 49.74299611 43.42377849 46.34026388 42.875 42.9375 C42.49893744 40.6177997 42.12263774 38.29813783 41.74609375 35.97851562 C40.82798635 30.31945195 39.91283856 24.65991582 39 19 C38.67 19 38.34 19 38 19 C34.97223297 38.32911522 31.96269978 57.66078246 29 77 C26.52076199 77.02685095 24.0418116 77.04676547 21.5625 77.0625 C20.85544922 77.07087891 20.14839844 77.07925781 19.41992188 77.08789062 C17.61306441 77.09653588 15.80612397 77.05220011 14 77 C12.44066875 75.44066875 12.49668531 73.69063643 12.1237793 71.53808594 C11.95657883 70.58488464 11.78937836 69.63168335 11.61711121 68.64959717 C11.4379567 67.60507385 11.25880219 66.56055054 11.07421875 65.484375 C10.88535599 64.4035968 10.69649323 63.3228186 10.50190735 62.20928955 C9.89334753 58.72350193 9.29012719 55.23681774 8.6875 51.75 C7.90196109 47.22356957 7.11378193 42.69760507 6.32421875 38.171875 C6.03488968 36.5078363 6.03488968 36.5078363 5.73971558 34.81018066 C4.31667369 26.673524 2.80101349 18.55757461 1.1837616 10.45721436 C1.02748795 9.66083557 0.87121429 8.86445679 0.71020508 8.04394531 C0.5724617 7.35536438 0.43471832 6.66678345 0.2928009 5.95733643 C0 4 0 4 0 0 Z " fill="#194147" transform="translate(292,638)"/>
<path d="M0 0 C4.62 0 9.24 0 14 0 C14.33 11.88 14.66 23.76 15 36 C17.31 33.36 19.62 30.72 22 28 C27.73797508 24.46893841 33.44227559 24.20730804 40 25 C47.19214551 26.73603512 52.09069757 29.70074086 56 36 C59.94062618 44.1612884 60.54598693 51.58756589 60.390625 60.54296875 C60.38496521 61.79257889 60.37930542 63.04218903 60.37347412 64.32966614 C60.35502214 67.6129238 60.31924271 70.89535845 60.2746582 74.17834473 C60.2333527 77.54392556 60.21538876 80.90962807 60.1953125 84.27539062 C60.15144136 90.85061689 60.08251489 97.42514976 60 104 C55.38 104 50.76 104 46 104 C45.98541748 102.36530762 45.97083496 100.73061523 45.95581055 99.04638672 C45.89778522 92.97438822 45.82055153 86.9027589 45.73754883 80.83105469 C45.70431962 78.20448809 45.6762815 75.57785043 45.65356445 72.95117188 C45.61998272 69.17286939 45.56766247 65.39521695 45.51171875 61.6171875 C45.50532883 60.44509735 45.4989389 59.2730072 45.49235535 58.06539917 C45.38785997 52.25475456 45.17757669 48.05727738 42 43 C42 42.34 42 41.68 42 41 C36.22360746 38.43271443 30.20116479 38.17487931 24 39 C19.2114891 41.17489871 16.82870643 45.2345548 15 50 C14.53130966 54.13026454 14.51135706 58.24468256 14.48828125 62.3984375 C14.47033005 63.58853424 14.45237885 64.77863098 14.43388367 66.00479126 C14.3798301 69.79482513 14.34589971 73.58473338 14.3125 77.375 C14.27932268 79.94923621 14.24483264 82.52345585 14.20898438 85.09765625 C14.12410592 91.39834682 14.05727031 97.69900044 14 104 C9.38 104 4.76 104 0 104 C0 69.68 0 35.36 0 0 Z " fill="#1A434A" transform="translate(383,611)"/>
<path d="M0 0 C5.51752089 3.6337226 8.06123597 8.36797896 10.25390625 14.484375 C10.25390625 15.474375 10.25390625 16.464375 10.25390625 17.484375 C5.54057585 17.82464217 0.95582297 18.02984098 -3.74609375 17.484375 C-6.37109375 14.609375 -6.37109375 14.609375 -7.74609375 11.484375 C-11.40680579 8.73195993 -15.79998067 9.11686196 -20.18359375 9.109375 C-20.93447266 9.08488281 -21.68535156 9.06039063 -22.45898438 9.03515625 C-26.30908952 9.01483907 -28.34688757 9.25336492 -31.75 11.22265625 C-33.99210459 13.76312309 -34.3813254 14.71679571 -34.24609375 18.046875 C-34.23578125 18.81128906 -34.22546875 19.57570313 -34.21484375 20.36328125 C-33.61045508 23.09814 -33.0500081 23.87491956 -30.74609375 25.484375 C-28.33326016 26.22543876 -26.01618513 26.82663299 -23.55859375 27.359375 C-22.11897027 27.69835323 -20.68018637 28.0409135 -19.2421875 28.38671875 C-18.50210449 28.56444824 -17.76202148 28.74217773 -16.99951172 28.92529297 C-13.34476551 29.83205015 -9.72962313 30.84699391 -6.12109375 31.921875 C-5.14619995 32.19330322 -5.14619995 32.19330322 -4.15161133 32.47021484 C1.46920552 34.18073973 5.57715786 36.77647118 8.71484375 41.84375 C11.27715688 48.54518433 12.79909973 54.19709637 10.30078125 61.12890625 C6.63977918 69.04176833 2.44068322 72.41433364 -5.74609375 75.484375 C-15.67623221 78.10708916 -30.56992853 78.34031177 -39.74609375 73.484375 C-45.96577998 69.46499808 -49.64906201 64.6032459 -51.74609375 57.484375 C-51.74609375 56.494375 -51.74609375 55.504375 -51.74609375 54.484375 C-46.79609375 54.484375 -41.84609375 54.484375 -36.74609375 54.484375 C-35.75609375 56.464375 -34.76609375 58.444375 -33.74609375 60.484375 C-29.5883483 64.04815682 -25.52677301 63.94097989 -20.30859375 63.859375 C-19.57060547 63.87097656 -18.83261719 63.88257813 -18.07226562 63.89453125 C-13.25747877 63.86885239 -9.91558424 63.12655599 -5.74609375 60.484375 C-4.01824656 57.02868061 -4.26111664 53.26315501 -4.74609375 49.484375 C-7.46363252 45.55904123 -11.05426179 44.00410018 -15.69213867 43.10864258 C-17.95780913 42.75758 -20.226195 42.43190627 -22.49609375 42.109375 C-31.15567471 40.76757853 -39.40896602 39.00788884 -45.74609375 32.484375 C-49.80165228 26.05142008 -49.50569458 18.88830035 -48.74609375 11.484375 C-47.0748791 5.43016344 -42.0125126 1.51116021 -36.74609375 -1.515625 C-26.07966022 -6.15044433 -10.2139581 -5.17236001 0 0 Z " fill="#1A434A" transform="translate(271.74609375,337.515625)"/>
<path d="M0 0 C1.80597656 0.02030273 1.80597656 0.02030273 3.6484375 0.04101562 C6.59915325 0.07614319 9.54963655 0.12994233 12.5 0.1875 C12.5 4.1475 12.5 8.1075 12.5 12.1875 C10.96988281 12.22488281 9.43976563 12.26226562 7.86328125 12.30078125 C5.84633 12.36644943 3.82940401 12.43289648 1.8125 12.5 C0.30139648 12.53383789 0.30139648 12.53383789 -1.24023438 12.56835938 C-7.78417313 12.80592811 -11.73799726 13.42549726 -16.5 18.1875 C-16.8063859 20.92184962 -17.0113336 23.57029821 -17.125 26.3125 C-17.16367187 27.06660156 -17.20234375 27.82070313 -17.2421875 28.59765625 C-17.33651031 30.46053184 -17.41934662 32.32398255 -17.5 34.1875 C-16.62674072 34.18226318 -15.75348145 34.17702637 -14.85375977 34.17163086 C-11.62410727 34.15462249 -8.39447755 34.14206631 -5.16479492 34.13256836 C-3.76504772 34.1275292 -2.3653058 34.12069784 -0.96557617 34.11206055 C1.04245777 34.0999768 3.05052957 34.09480193 5.05859375 34.08984375 C6.87315063 34.08198853 6.87315063 34.08198853 8.72436523 34.07397461 C11.5 34.1875 11.5 34.1875 12.5 35.1875 C12.5 39.1475 12.5 43.1075 12.5 47.1875 C2.6 47.1875 -7.3 47.1875 -17.5 47.1875 C-17.5 65.9975 -17.5 84.8075 -17.5 104.1875 C-22.45 104.1875 -27.4 104.1875 -32.5 104.1875 C-32.5 85.3775 -32.5 66.5675 -32.5 47.1875 C-39.76 47.1875 -47.02 47.1875 -54.5 47.1875 C-54.5 42.8975 -54.5 38.6075 -54.5 34.1875 C-47.24 34.1875 -39.98 34.1875 -32.5 34.1875 C-32.603125 31.75375 -32.70625 29.32 -32.8125 26.8125 C-32.93542463 18.7865798 -31.47591515 12.80180152 -26.11328125 6.578125 C-18.5523338 -0.46494934 -9.67279022 -0.20727408 0 0 Z " fill="#1D474E" transform="translate(432.5,459.8125)"/>
<path d="M0 0 C4.62 0 9.24 0 14 0 C14 7.26 14 14.52 14 22 C23.57 22 33.14 22 43 22 C43 26.29 43 30.58 43 35 C33.43 35 23.86 35 14 35 C14.07402069 41.46021925 14.15687217 47.91905939 14.26245117 54.37866211 C14.29568055 56.57552927 14.32371866 58.7724814 14.34643555 60.96948242 C14.38001754 64.12976243 14.43233634 67.28926521 14.48828125 70.44921875 C14.49467117 71.42960617 14.5010611 72.40999359 14.50764465 73.42008972 C14.64679908 80.20183167 14.64679908 80.20183167 18 86 C20.46120841 87.23060421 22.25776866 87.2057723 25.0078125 87.31640625 C25.99394531 87.35830078 26.98007812 87.40019531 27.99609375 87.44335938 C29.02863281 87.48267578 30.06117188 87.52199219 31.125 87.5625 C32.68541016 87.62727539 32.68541016 87.62727539 34.27734375 87.69335938 C36.8513983 87.79962768 39.42568131 87.90033527 42 88 C42 91.96 42 95.92 42 100 C37.81210752 100.08117236 33.62579966 100.14059104 29.4375 100.1875 C28.25607422 100.21263672 27.07464844 100.23777344 25.85742188 100.26367188 C17.51171016 100.33380391 12.71228947 99.49865637 5.75 94.8125 C0.2671956 89.20508641 -0.34162662 83.13878965 -0.33988953 75.62280273 C-0.32440567 74.59227783 -0.30892181 73.56175293 -0.29296875 72.5 C-0.28872391 71.42371338 -0.28447906 70.34742676 -0.28010559 69.23852539 C-0.26341025 65.8254213 -0.22577443 62.41292345 -0.1875 59 C-0.17244137 56.67578982 -0.15875503 54.35157032 -0.14648438 52.02734375 C-0.11609787 46.35114514 -0.05735727 40.67624537 0 35 C-6.93 35 -13.86 35 -21 35 C-21 30.71 -21 26.42 -21 22 C-14.07 22 -7.14 22 0 22 C0 14.74 0 7.48 0 0 Z " fill="#174249" transform="translate(644,313)"/>
<path d="M0 0 C0.84344971 0.00829834 1.68689941 0.01659668 2.5559082 0.02514648 C8.64667359 0.19107039 13.56249832 0.81685007 18.625 4.4375 C19.69621094 5.20126953 19.69621094 5.20126953 20.7890625 5.98046875 C25.45852192 9.69056651 28.91694082 13.64542753 30.625 19.4375 C30.90875518 22.20411305 30.82440852 24.64578069 30.625 27.4375 C26.005 27.4375 21.385 27.4375 16.625 27.4375 C16.3775 26.385625 16.13 25.33375 15.875 24.25 C14.81577119 20.59084595 13.35372946 18.16622946 10.625 15.4375 C4.94797724 12.6905535 -1.48911609 12.20299536 -7.5390625 14.125 C-11.94052234 16.37255396 -13.58288308 18.96945563 -15.375 23.4375 C-15.6677625 26.12348535 -15.81993285 28.56969354 -15.80859375 31.25 C-15.81645653 32.3479187 -15.81645653 32.3479187 -15.82447815 33.46801758 C-15.83086997 35.0076369 -15.8295983 36.54730523 -15.82104492 38.08691406 C-15.8125228 40.43122854 -15.84135026 42.77311245 -15.87304688 45.1171875 C-15.87465898 46.61979094 -15.87408117 48.12239866 -15.87109375 49.625 C-15.88232773 50.31891846 -15.89356171 51.01283691 -15.90513611 51.7277832 C-15.83384058 56.75053965 -14.48563072 59.55108418 -11.375 63.4375 C-6.82890589 67.65095308 -2.95634273 67.97980758 2.99609375 67.77734375 C6.32185 67.34741686 8.78351833 66.18610411 11.625 64.4375 C12.285 64.4375 12.945 64.4375 13.625 64.4375 C15.28989182 60.51311214 16.49704037 56.54649581 17.625 52.4375 C22.245 52.4375 26.865 52.4375 31.625 52.4375 C31.1256303 60.42741513 29.53672072 66.0660339 24.25 72.1875 C17.0177924 78.38653509 10.83333966 80.8240592 1.3125 80.75 C0.558479 80.74436035 -0.19554199 80.7387207 -0.97241211 80.73291016 C-6.54744919 80.61136051 -11.38287351 80.09657145 -16.375 77.4375 C-17.06851563 77.07011719 -17.76203125 76.70273437 -18.4765625 76.32421875 C-24.85330086 72.27606463 -28.00823799 66.48159905 -30.375 59.4375 C-31.28757129 53.98123697 -31.24110609 48.47274647 -31.15722656 42.95605469 C-31.12503011 40.43985324 -31.15705741 37.9300701 -31.1953125 35.4140625 C-31.22080416 25.63448353 -30.31972901 17.63919321 -24.375 9.4375 C-17.30700063 2.4938544 -9.73555868 -0.12269683 0 0 Z " fill="#164047" transform="translate(576.375,333.5625)"/>
<path d="M0 0 C12.87 0 25.74 0 39 0 C39.04898438 6.16171875 39.09796875 12.3234375 39.1484375 18.671875 C39.18381848 22.57293321 39.21977541 26.473969 39.2578125 30.375 C39.31814563 36.56832693 39.37633309 42.76162246 39.421875 48.95507812 C39.45872072 53.94777061 39.50507888 58.94029205 39.55806351 63.93283844 C39.57661122 65.83860528 39.59171779 67.74440878 39.60334396 69.65023041 C39.62019987 72.31745457 39.64923339 74.98428671 39.68115234 77.65136719 C39.68331253 78.4411496 39.68547272 79.23093201 39.68769836 80.04464722 C39.76813357 85.33194916 39.76813357 85.33194916 42 90 C45.11094988 92.14852654 47.92090237 92.29534795 51.640625 92.4140625 C52.71054687 92.45273437 53.78046875 92.49140625 54.8828125 92.53125 C56.54957031 92.57765625 56.54957031 92.57765625 58.25 92.625 C59.37664062 92.66367187 60.50328125 92.70234375 61.6640625 92.7421875 C64.44244109 92.83636983 67.22119799 92.91927028 70 93 C70 96.96 70 100.92 70 105 C65.52017585 105.10845573 61.04300766 105.1875539 56.5625 105.25 C55.30244141 105.28351563 54.04238281 105.31703125 52.74414062 105.3515625 C44.5339309 105.43730882 37.4046394 105.05344083 31.12915039 99.27832031 C25.83973788 93.69628797 24.74735664 88.03507875 24.77294922 80.43408203 C24.77265717 79.70168808 24.77236511 78.96929413 24.77206421 78.21470642 C24.77344906 75.81228471 24.78897003 73.41017952 24.8046875 71.0078125 C24.80842064 69.33487111 24.81126619 67.66192752 24.81326294 65.98898315 C24.8208757 61.59954728 24.84050381 57.2102451 24.8626709 52.82086182 C24.88318024 48.33632211 24.89227552 43.85176066 24.90234375 39.3671875 C24.92375206 30.578057 24.95891486 21.78906057 25 13 C16.75 13 8.5 13 0 13 C0 8.71 0 4.42 0 0 Z " fill="#18434A" transform="translate(378,308)"/>
<path d="M0 0 C0.33 0 0.66 0 1 0 C1.33 72.27 1.66 144.54 2 219 C4.97 215.7 7.94 212.4 11 209 C21.25736822 201.89874508 31.9419018 197.84258048 44.4921875 197.90234375 C45.5735498 197.90484131 46.65491211 197.90733887 47.76904297 197.90991211 C49.8014917 197.92356812 49.8014917 197.92356812 51.875 197.9375 C58.371875 197.9684375 58.371875 197.9684375 65 198 C65 206.91 65 215.82 65 225 C64.67 225 64.34 225 64 225 C64 217.08 64 209.16 64 201 C59.30658183 205.1067409 54.83036605 209.04506455 50.45776367 213.42871094 C49.96398224 213.92234634 49.47020081 214.41598175 48.9614563 214.92457581 C47.36123944 216.52547845 45.7645761 218.12987326 44.16796875 219.734375 C43.04337737 220.86083616 41.91856153 221.98707325 40.79353333 223.11309814 C37.85475532 226.05566428 34.91899265 229.00122042 31.98388672 231.94744873 C28.9917385 234.94986492 25.99672633 237.94942125 23.00195312 240.94921875 C17.74674251 246.21396082 12.49401047 251.4811645 7.24308777 256.75018311 C6.13275932 257.86384247 6.13275932 257.86384247 5 259 C4.44528519 259.59629211 3.89057037 260.19258423 3.31904602 260.8069458 C2 262 2 262 0 262 C0 175.54 0 89.08 0 0 Z " fill="#82B398" transform="translate(739,278)"/>
<path d="M0 0 C6.13918326 3.48413455 10.55073352 8.11525657 12.625 14.9375 C12.76260722 17.74743945 12.81511573 20.44751924 12.75 23.25 C12.74097656 23.99056641 12.73195313 24.73113281 12.72265625 25.49414062 C12.69924213 27.30873467 12.66337615 29.12316071 12.625 30.9375 C8.335 30.9375 4.045 30.9375 -0.375 30.9375 C-0.765625 27.71484375 -1.15625 24.4921875 -1.546875 21.26953125 C-2.47599154 17.53115197 -3.68498832 15.66238221 -6.375 12.9375 C-9.53509533 11.88413489 -11.9303136 11.73717112 -15.25 11.6875 C-16.27867187 11.66171875 -17.30734375 11.6359375 -18.3671875 11.609375 C-21.98164536 12.00367949 -23.58089131 12.59524387 -26.375 14.9375 C-30.70203401 21.78104326 -30.97577584 27.55320289 -30.984375 35.53125 C-31.00091125 36.71851685 -31.01744751 37.90578369 -31.03448486 39.12902832 C-31.08283463 42.8985722 -31.10430804 46.66771298 -31.125 50.4375 C-31.15317039 53.0026243 -31.1830993 55.56772994 -31.21484375 58.1328125 C-31.28859088 64.40100848 -31.33824565 70.66898237 -31.375 76.9375 C-35.995 76.9375 -40.615 76.9375 -45.375 76.9375 C-45.375 51.1975 -45.375 25.4575 -45.375 -1.0625 C-40.755 -1.0625 -36.135 -1.0625 -31.375 -1.0625 C-31.045 1.9075 -30.715 4.8775 -30.375 7.9375 C-29.715 7.03 -29.055 6.1225 -28.375 5.1875 C-21.10597185 -3.35715147 -10.02422099 -4.55920894 0 0 Z " fill="#133F47" transform="translate(512.375,487.0625)"/>
<path d="M0 0 C5.14339795 4.71238695 7.48936281 11.89874733 8.05859375 18.671875 C8.06199012 21.78294917 7.91883107 24.8935084 7.75 28 C3.13 28 -1.49 28 -6.25 28 C-6.3325 26.329375 -6.415 24.65875 -6.5 22.9375 C-6.99291451 17.55015263 -8.02140444 14.3355426 -11.25 10 C-16.05121547 6.85218323 -21.74366171 7.41029844 -27.25 8 C-32.36444093 10.33290288 -34.28301634 12.81017052 -36.25 18 C-36.71965259 22.20311848 -36.73867814 26.39089653 -36.76171875 30.6171875 C-36.77966995 31.82948029 -36.79762115 33.04177307 -36.81611633 34.290802 C-36.87017724 38.15216626 -36.9041027 42.01340716 -36.9375 45.875 C-36.97067666 48.49741298 -37.00516664 51.11980969 -37.04101562 53.7421875 C-37.12590186 60.1613693 -37.19273402 66.58051478 -37.25 73 C-41.87 73 -46.49 73 -51.25 73 C-51.25 47.59 -51.25 22.18 -51.25 -4 C-46.96 -4 -42.67 -4 -38.25 -4 C-37.92 -0.7 -37.59 2.6 -37.25 6 C-36.693125 5.0925 -36.13625 4.185 -35.5625 3.25 C-26.15203137 -9.97552348 -12.18421262 -7.497977 0 0 Z " fill="#174048" transform="translate(601.25,642)"/>
<path d="M0 0 C4.49502603 2.24751301 7.17893868 5.67317449 8.7421875 10.33984375 C9.27546941 14.93454849 9.35981767 19.48279137 9.31860352 24.1003418 C9.30473682 26.26962891 9.33885871 28.43459167 9.37695312 30.60351562 C9.41893897 38.11503808 9.26605435 44.63976613 3.7421875 50.33984375 C-0.75287539 54.13710988 -4.98089575 54.99896566 -10.83203125 54.71484375 C-16.15147975 53.89251355 -19.72250068 51.49792088 -22.921875 47.1875 C-26.40047854 41.41321485 -25.9692768 34.97039163 -25.85473633 28.44897461 C-25.82032004 26.27781944 -25.83413585 24.11072376 -25.85351562 21.93945312 C-25.84404633 12.98092201 -25.31463673 7.39666798 -18.8203125 0.90234375 C-12.88175879 -1.70228507 -6.24693674 -1.82652649 0 0 Z " fill="#F4F7F1" transform="translate(582.2578125,498.66015625)"/>
<path d="M0 0 C4.51314298 2.35761201 6.63669558 5.4477372 8.39453125 10.08203125 C8.87500049 13.44531596 8.70703125 16.87210064 8.70703125 20.26953125 C-2.51296875 20.26953125 -13.73296875 20.26953125 -25.29296875 20.26953125 C-25.29296875 7.58532072 -25.29296875 7.58532072 -21.29296875 3.26953125 C-15.68475061 -2.19488643 -7.23973314 -2.30635451 0 0 Z " fill="#F3F6F2" transform="translate(341.29296875,346.73046875)"/>
<path d="M0 0 C3.30180503 2.45518836 5.59744189 5.13238379 7.4375 8.8125 C7.4375 12.4425 7.4375 16.0725 7.4375 19.8125 C-3.7825 19.8125 -15.0025 19.8125 -26.5625 19.8125 C-26.5625 11.09277708 -26.39438431 7.5125704 -20.6875 1.4375 C-14.87839674 -3.28162226 -6.70377923 -2.23459308 0 0 Z " fill="#F3F6F1" transform="translate(503.5625,347.1875)"/>
<path d="M0 0 C3.77702297 2.63513231 6.60374735 5.7074947 8.6875 9.875 C8.6875 13.175 8.6875 16.475 8.6875 19.875 C-2.5325 19.875 -13.7525 19.875 -25.3125 19.875 C-25.3125 8.49682741 -25.3125 8.49682741 -20.3125 2.875 C-14.51239172 -2.35098589 -7.1392625 -2.42465519 0 0 Z " fill="#F4F7F2" transform="translate(502.3125,649.125)"/>
<path d="M0 0 C3.77060237 2.20587872 5.84318155 4.29166604 7.625 8.375 C7.625 12.005 7.625 15.635 7.625 19.375 C-3.265 19.375 -14.155 19.375 -25.375 19.375 C-25.375 7.50320513 -25.375 7.50320513 -21.375 2.375 C-14.86702755 -2.70121851 -7.60079845 -3.36869652 0 0 Z " fill="#F5F7F2" transform="translate(665.375,649.625)"/>
<path d="M0 0 C4.62 0 9.24 0 14 0 C14.33 3.63 14.66 7.26 15 11 C14.34 11 13.68 11 13 11 C13 7.7 13 4.4 13 1 C9.04 1 5.08 1 1 1 C1.33 25.75 1.66 50.5 2 76 C5.3 76 8.6 76 12 76 C11.98952637 74.53135498 11.97905273 73.06270996 11.96826172 71.54956055 C11.9321086 66.10964386 11.90911656 60.66973783 11.89013672 55.22973633 C11.88006845 52.87359838 11.86641294 50.51747296 11.84912109 48.16137695 C11.82490924 44.77812614 11.81352522 41.39504028 11.8046875 38.01171875 C11.79436493 36.95538742 11.78404236 35.89905609 11.77340698 34.81071472 C11.77325592 33.82992447 11.77310486 32.84913422 11.77294922 31.83862305 C11.768508 30.97480515 11.76406677 30.11098724 11.75949097 29.22099304 C12 27 12 27 14 24 C14 41.82 14 59.64 14 78 C9.38 78 4.76 78 0 78 C0 52.26 0 26.52 0 0 Z " fill="#2C4B4F" transform="translate(467,486)"/>
<path d="M0 0 C0.33 0 0.66 0 1 0 C1 10.23 1 20.46 1 31 C1.99 31 2.98 31 4 31 C2.25 35.875 2.25 35.875 0 37 C0 24.79 0 12.58 0 0 Z " fill="#E6F5F4" transform="translate(397,611)"/>
<path d="M0 0 C4.62 0 9.24 0 14 0 C14 1.98 14 3.96 14 6 C13.01 6.495 13.01 6.495 12 7 C12 5.35 12 3.7 12 2 C8.37 2 4.74 2 1 2 C0.67 2.99 0.34 3.98 0 5 C0 3.35 0 1.7 0 0 Z " fill="#415E62" transform="translate(594,386)"/>
<path d="M0 0 C0 3.56986156 -0.6045429 4.02094908 -2.9375 6.5625 C-5.24459962 9.08999729 -5.24459962 9.08999729 -7 12 C-7.66 12 -8.32 12 -9 12 C-7.50948318 7.39294801 -5.21457741 4.53603516 -2 1 C-1.34 0.67 -0.68 0.34 0 0 Z " fill="#28484D" transform="translate(637,642)"/>
<path d="M0 0 C0 0.66 0 1.32 0 2 C-1.71484375 3.65625 -1.71484375 3.65625 -3.9375 5.5 C-6.92045179 7.88926999 -6.92045179 7.88926999 -9 11 C-9.66 11 -10.32 11 -11 11 C-9.7672897 6.34309441 -5.30909278 0 0 0 Z " fill="#2C4C51" transform="translate(235,337)"/>
<path d="M0 0 C0 3 0 3 -2.5 5.6875 C-3.325 6.450625 -4.15 7.21375 -5 8 C-5.66 7.67 -6.32 7.34 -7 7 C-2.25 1.125 -2.25 1.125 0 0 Z " fill="#26474B" transform="translate(572,639)"/>
<path d="M0 0 C0 4.38968456 -2.12805101 5.76905739 -5 9 C-5.66 8.67 -6.32 8.34 -7 8 C-6.21366078 6.85050412 -5.42073742 5.70551011 -4.625 4.5625 C-4.18414063 3.92441406 -3.74328125 3.28632813 -3.2890625 2.62890625 C-2 1 -2 1 0 0 Z " fill="#25464B" transform="translate(556,340)"/>
<path d="M0 0 C0.66 0 1.32 0 2 0 C0.70700306 2.88437779 -0.65941363 4.87219421 -3 7 C-3.66 6.67 -4.32 6.34 -5 6 C-3.38405168 3.95880212 -1.7143618 1.95927063 0 0 Z " fill="#294A4E" transform="translate(553,491)"/>
<path d="M0 0 C0.66 0 1.32 0 2 0 C0.70700306 2.88437779 -0.65941363 4.87219421 -3 7 C-3.66 6.67 -4.32 6.34 -5 6 C-3.38405168 3.95880212 -1.7143618 1.95927063 0 0 Z " fill="#214349" transform="translate(487,489)"/>
<path d="M0 0 C0.33 0 0.66 0 1 0 C1.33 2.97 1.66 5.94 2 9 C1.01 9 0.02 9 -1 9 C-0.67 6.03 -0.34 3.06 0 0 Z " fill="#C2D5D6" transform="translate(330,652)"/>
</svg>
